<?xml version="1.0" encoding="UTF-8"?>
<!--Generator: Apple Native CoreSVG 336-->
<!DOCTYPE svg
PUBLIC "-//W3C//DTD SVG 1.1//EN"
       "http://www.w3.org/Graphics/SVG/1.1/DTD/svg11.dtd">
<svg version="1.1" xmlns="http://www.w3.org/2000/svg" xmlns:xlink="http://www.w3.org/1999/xlink" viewBox="0 0 3300 2200">
 <!--glyph: "101B3E", point size: 100.0, font version: "20.0d8e1", template writer version: "138.0.0"-->
 <style>.monochrome-0 {-sfsymbols-motion-group:1;-sfsymbols-layer-tags:wifi wifi.slash}
.monochrome-1 {-sfsymbols-motion-group:1;-sfsymbols-layer-tags:wifi wifi.slash}
.monochrome-2 {-sfsymbols-motion-group:1;-sfsymbols-layer-tags:wifi wifi.slash}
.monochrome-3 {opacity:0.0;-sfsymbols-clear-behind:true;-sfsymbols-motion-group:0;-sfsymbols-layer-tags:_slash wifi.slash}
.monochrome-4 {-sfsymbols-motion-group:0;-sfsymbols-layer-tags:_slash wifi.slash}

.multicolor-0:systemBlueColor {-sfsymbols-motion-group:1;-sfsymbols-layer-tags:wifi wifi.slash}
.multicolor-1:systemBlueColor {-sfsymbols-motion-group:1;-sfsymbols-layer-tags:wifi wifi.slash}
.multicolor-2:systemBlueColor {-sfsymbols-motion-group:1;-sfsymbols-layer-tags:wifi wifi.slash}
.multicolor-3:tintColor {opacity:0.0;-sfsymbols-clear-behind:true;-sfsymbols-motion-group:0;-sfsymbols-layer-tags:_slash wifi.slash}
.multicolor-4:systemBlueColor {-sfsymbols-motion-group:0;-sfsymbols-layer-tags:_slash wifi.slash}

.hierarchical-0:secondary {-sfsymbols-motion-group:1;-sfsymbols-layer-tags:wifi wifi.slash}
.hierarchical-1:secondary {-sfsymbols-motion-group:1;-sfsymbols-layer-tags:wifi wifi.slash}
.hierarchical-2:secondary {-sfsymbols-motion-group:1;-sfsymbols-layer-tags:wifi wifi.slash}
.hierarchical-3:primary {opacity:0.0;-sfsymbols-clear-behind:true;-sfsymbols-motion-group:0;-sfsymbols-layer-tags:_slash wifi.slash}
.hierarchical-4:primary {-sfsymbols-motion-group:0;-sfsymbols-layer-tags:_slash wifi.slash}

.SFSymbolsPreviewWireframe {fill:none;opacity:1.0;stroke:black;stroke-width:0.5}
</style>
 <g id="Notes">
  <rect height="2200" id="artboard" style="fill:white;opacity:1" width="3300" x="0" y="0"/>
  <line style="fill:none;stroke:black;opacity:1;stroke-width:0.5;" x1="263" x2="3036" y1="292" y2="292"/>
  <text style="stroke:none;fill:black;font-family:sans-serif;font-size:13;font-weight:bold;" transform="matrix(1 0 0 1 263 322)">Weight/Scale Variations</text>
  <text style="stroke:none;fill:black;font-family:sans-serif;font-size:13;text-anchor:middle;" transform="matrix(1 0 0 1 559.711 322)">Ultralight</text>
  <text style="stroke:none;fill:black;font-family:sans-serif;font-size:13;text-anchor:middle;" transform="matrix(1 0 0 1 856.422 322)">Thin</text>
  <text style="stroke:none;fill:black;font-family:sans-serif;font-size:13;text-anchor:middle;" transform="matrix(1 0 0 1 1153.13 322)">Light</text>
  <text style="stroke:none;fill:black;font-family:sans-serif;font-size:13;text-anchor:middle;" transform="matrix(1 0 0 1 1449.84 322)">Regular</text>
  <text style="stroke:none;fill:black;font-family:sans-serif;font-size:13;text-anchor:middle;" transform="matrix(1 0 0 1 1746.56 322)">Medium</text>
  <text style="stroke:none;fill:black;font-family:sans-serif;font-size:13;text-anchor:middle;" transform="matrix(1 0 0 1 2043.27 322)">Semibold</text>
  <text style="stroke:none;fill:black;font-family:sans-serif;font-size:13;text-anchor:middle;" transform="matrix(1 0 0 1 2339.98 322)">Bold</text>
  <text style="stroke:none;fill:black;font-family:sans-serif;font-size:13;text-anchor:middle;" transform="matrix(1 0 0 1 2636.69 322)">Heavy</text>
  <text style="stroke:none;fill:black;font-family:sans-serif;font-size:13;text-anchor:middle;" transform="matrix(1 0 0 1 2933.4 322)">Black</text>
  <line style="fill:none;stroke:black;opacity:1;stroke-width:0.5;" x1="263" x2="3036" y1="1903" y2="1903"/>
  <g transform="matrix(0.2 0 0 0.2 263 1933)">
   <path d="m46.2402 4.15039c21.7773 0 39.4531-17.627 39.4531-39.4043s-17.6758-39.4043-39.4531-39.4043c-21.7285 0-39.4043 17.627-39.4043 39.4043s17.6758 39.4043 39.4043 39.4043Zm0-7.42188c-17.6758 0-31.9336-14.3066-31.9336-31.9824s14.2578-31.9824 31.9336-31.9824 31.9824 14.3066 31.9824 31.9824-14.3066 31.9824-31.9824 31.9824Zm-17.9688-31.9824c0 2.14844 1.51367 3.61328 3.75977 3.61328h10.498v10.5957c0 2.19727 1.46484 3.71094 3.61328 3.71094 2.24609 0 3.71094-1.51367 3.71094-3.71094v-10.5957h10.5957c2.19727 0 3.71094-1.46484 3.71094-3.61328 0-2.19727-1.51367-3.71094-3.71094-3.71094h-10.5957v-10.5469c0-2.24609-1.46484-3.75977-3.71094-3.75977-2.14844 0-3.61328 1.51367-3.61328 3.75977v10.5469h-10.498c-2.24609 0-3.75977 1.51367-3.75977 3.71094Z"/>
  </g>
  <g transform="matrix(0.2 0 0 0.2 281.506 1933)">
   <path d="m58.5449 14.5508c27.4902 0 49.8047-22.3145 49.8047-49.8047s-22.3145-49.8047-49.8047-49.8047-49.8047 22.3145-49.8047 49.8047 22.3145 49.8047 49.8047 49.8047Zm0-8.30078c-22.9492 0-41.5039-18.5547-41.5039-41.5039s18.5547-41.5039 41.5039-41.5039 41.5039 18.5547 41.5039 41.5039-18.5547 41.5039-41.5039 41.5039Zm-22.6562-41.5039c0 2.39258 1.66016 4.00391 4.15039 4.00391h14.3555v14.4043c0 2.44141 1.66016 4.15039 4.05273 4.15039 2.44141 0 4.15039-1.66016 4.15039-4.15039v-14.4043h14.4043c2.44141 0 4.15039-1.61133 4.15039-4.00391 0-2.44141-1.70898-4.15039-4.15039-4.15039h-14.4043v-14.3555c0-2.49023-1.70898-4.19922-4.15039-4.19922-2.39258 0-4.05273 1.70898-4.05273 4.19922v14.3555h-14.3555c-2.49023 0-4.15039 1.70898-4.15039 4.15039Z"/>
  </g>
  <g transform="matrix(0.2 0 0 0.2 304.924 1933)">
   <path d="m74.8535 28.3203c35.1074 0 63.623-28.4668 63.623-63.5742s-28.5156-63.623-63.623-63.623-63.5742 28.5156-63.5742 63.623 28.4668 63.5742 63.5742 63.5742Zm0-9.08203c-30.127 0-54.4922-24.3652-54.4922-54.4922s24.3652-54.4922 54.4922-54.4922 54.4922 24.3652 54.4922 54.4922-24.3652 54.4922-54.4922 54.4922Zm-28.8574-54.4922c0 2.58789 1.85547 4.39453 4.58984 4.39453h19.7266v19.7754c0 2.68555 1.85547 4.58984 4.44336 4.58984 2.68555 0 4.54102-1.85547 4.54102-4.58984v-19.7754h19.7754c2.68555 0 4.58984-1.80664 4.58984-4.39453 0-2.73438-1.85547-4.58984-4.58984-4.58984h-19.7754v-19.7266c0-2.73438-1.85547-4.63867-4.54102-4.63867-2.58789 0-4.44336 1.9043-4.44336 4.63867v19.7266h-19.7266c-2.73438 0-4.58984 1.85547-4.58984 4.58984Z"/>
  </g>
  <text style="stroke:none;fill:black;font-family:sans-serif;font-size:13;font-weight:bold;" transform="matrix(1 0 0 1 263 1953)">Design Variations</text>
  <text style="stroke:none;fill:black;font-family:sans-serif;font-size:13;" transform="matrix(1 0 0 1 263 1971)">Symbols are supported in up to nine weights and three scales.</text>
  <text style="stroke:none;fill:black;font-family:sans-serif;font-size:13;" transform="matrix(1 0 0 1 263 1989)">For optimal layout with text and other symbols, vertically align</text>
  <text style="stroke:none;fill:black;font-family:sans-serif;font-size:13;" transform="matrix(1 0 0 1 263 2007)">symbols with the adjacent text.</text>
  <line style="fill:none;stroke:#00AEEF;stroke-width:0.5;opacity:1.0;" x1="776" x2="776" y1="1919" y2="1933"/>
  <g transform="matrix(0.2 0 0 0.2 776 1933)">
   <path d="m16.5527 0.78125c2.58789 0 3.85742-0.976562 4.78516-3.71094l6.29883-17.2363h28.8086l6.29883 17.2363c0.927734 2.73438 2.19727 3.71094 4.73633 3.71094 2.58789 0 4.24805-1.5625 4.24805-4.00391 0-0.830078-0.146484-1.61133-0.537109-2.63672l-22.9004-60.9863c-1.12305-2.97852-3.125-4.49219-6.25-4.49219-3.02734 0-5.07812 1.46484-6.15234 4.44336l-22.9004 61.084c-0.390625 1.02539-0.537109 1.80664-0.537109 2.63672 0 2.44141 1.5625 3.95508 4.10156 3.95508Zm13.4766-28.3691 11.8652-32.8613h0.244141l11.8652 32.8613Z"/>
  </g>
  <line style="fill:none;stroke:#00AEEF;stroke-width:0.5;opacity:1.0;" x1="792.836" x2="792.836" y1="1919" y2="1933"/>
  <text style="stroke:none;fill:black;font-family:sans-serif;font-size:13;font-weight:bold;" transform="matrix(1 0 0 1 776 1953)">Margins</text>
  <text style="stroke:none;fill:black;font-family:sans-serif;font-size:13;" transform="matrix(1 0 0 1 776 1971)">Leading and trailing margins on the left and right side of each symbol</text>
  <text style="stroke:none;fill:black;font-family:sans-serif;font-size:13;" transform="matrix(1 0 0 1 776 1989)">can be adjusted by modifying the x-location of the margin guidelines.</text>
  <text style="stroke:none;fill:black;font-family:sans-serif;font-size:13;" transform="matrix(1 0 0 1 776 2007)">Modifications are automatically applied proportionally to all</text>
  <text style="stroke:none;fill:black;font-family:sans-serif;font-size:13;" transform="matrix(1 0 0 1 776 2025)">scales and weights.</text>
  <g transform="matrix(0.2 0 0 0.2 1289 1933)">
   <path d="m14.209 9.32617 8.49609 8.54492c4.29688 4.3457 9.22852 4.05273 13.8672-1.07422l53.4668-58.9355-4.83398-4.88281-53.0762 58.3984c-1.75781 2.00195-3.41797 2.49023-5.76172 0.146484l-5.85938-5.81055c-2.34375-2.29492-1.80664-4.00391 0.195312-5.81055l57.373-54.0039-4.88281-4.83398-57.959 54.4434c-4.93164 4.58984-5.32227 9.47266-1.02539 13.8184Zm32.0801-90.9668c-2.09961 2.05078-2.24609 4.93164-1.07422 6.88477 1.17188 1.80664 3.4668 2.97852 6.68945 2.14844 7.32422-1.70898 14.9414-2.00195 22.0703 2.68555l-2.92969 7.27539c-1.70898 4.15039-0.830078 7.08008 1.85547 9.81445l11.4746 11.5723c2.44141 2.44141 4.49219 2.53906 7.32422 2.05078l5.32227-0.976562 3.32031 3.36914-0.195312 2.7832c-0.195312 2.49023 0.439453 4.39453 2.88086 6.78711l3.80859 3.71094c2.39258 2.39258 5.46875 2.53906 7.8125 0.195312l14.5508-14.5996c2.34375-2.34375 2.24609-5.32227-0.146484-7.71484l-3.85742-3.80859c-2.39258-2.39258-4.24805-3.17383-6.64062-2.97852l-2.88086 0.244141-3.22266-3.17383 1.2207-5.61523c0.634766-2.83203-0.146484-5.0293-3.07617-7.95898l-10.9863-10.9375c-16.6992-16.6016-38.8672-16.2109-53.3203-1.75781Zm7.4707 1.85547c12.1582-8.88672 28.6133-7.37305 39.7461 3.75977l12.1582 12.0605c1.17188 1.17188 1.36719 2.09961 1.02539 3.80859l-1.61133 7.42188 7.51953 7.42188 4.93164-0.292969c1.26953-0.0488281 1.66016 0.0488281 2.63672 1.02539l2.88086 2.88086-12.207 12.207-2.88086-2.88086c-0.976562-0.976562-1.12305-1.36719-1.07422-2.68555l0.341797-4.88281-7.4707-7.42188-7.61719 1.26953c-1.61133 0.341797-2.34375 0.195312-3.56445-0.976562l-10.0098-10.0098c-1.26953-1.17188-1.41602-2.00195-0.634766-3.85742l4.39453-10.4492c-7.8125-7.27539-17.9688-10.4004-28.125-7.42188-0.78125 0.195312-1.07422-0.439453-0.439453-0.976562Z"/>
  </g>
  <text style="stroke:none;fill:black;font-family:sans-serif;font-size:13;font-weight:bold;" transform="matrix(1 0 0 1 1289 1953)">Exporting</text>
  <text style="stroke:none;fill:black;font-family:sans-serif;font-size:13;" transform="matrix(1 0 0 1 1289 1971)">Symbols should be outlined when exporting to ensure the</text>
  <text style="stroke:none;fill:black;font-family:sans-serif;font-size:13;" transform="matrix(1 0 0 1 1289 1989)">design is preserved when submitting to Xcode.</text>
  <text id="template-version" style="stroke:none;fill:black;font-family:sans-serif;font-size:13;text-anchor:end;" transform="matrix(1 0 0 1 3036 1933)">Template v.5.0</text>
  <text style="stroke:none;fill:black;font-family:sans-serif;font-size:13;text-anchor:end;" transform="matrix(1 0 0 1 3036 1951)">Requires Xcode 15 or greater</text>
  <text id="descriptive-name" style="stroke:none;fill:black;font-family:sans-serif;font-size:13;text-anchor:end;" transform="matrix(1 0 0 1 3036 1969)">Generated from wifi.slash</text>
  <text style="stroke:none;fill:black;font-family:sans-serif;font-size:13;text-anchor:end;" transform="matrix(1 0 0 1 3036 1987)">Typeset at 100.0 points</text>
  <text style="stroke:none;fill:black;font-family:sans-serif;font-size:13;" transform="matrix(1 0 0 1 263 726)">Small</text>
  <text style="stroke:none;fill:black;font-family:sans-serif;font-size:13;" transform="matrix(1 0 0 1 263 1156)">Medium</text>
  <text style="stroke:none;fill:black;font-family:sans-serif;font-size:13;" transform="matrix(1 0 0 1 263 1586)">Large</text>
 </g>
 <g id="Guides">
  <g id="H-reference" style="fill:#27AAE1;stroke:none;" transform="matrix(1 0 0 1 339 696)">
   <path d="M0.993654 0L3.63775 0L29.3281-67.1323L30.0303-67.1323L30.0303-70.459L28.1226-70.459ZM11.6885-24.4799L46.9815-24.4799L46.2315-26.7285L12.4385-26.7285ZM55.1196 0L57.7637 0L30.6382-70.459L29.4326-70.459L29.4326-67.1323Z"/>
  </g>
  <line id="Baseline-S" style="fill:none;stroke:#27AAE1;opacity:1;stroke-width:0.5;" x1="263" x2="3036" y1="696" y2="696"/>
  <line id="Capline-S" style="fill:none;stroke:#27AAE1;opacity:1;stroke-width:0.5;" x1="263" x2="3036" y1="625.541" y2="625.541"/>
  <g id="H-reference" style="fill:#27AAE1;stroke:none;" transform="matrix(1 0 0 1 339 1126)">
   <path d="M0.993654 0L3.63775 0L29.3281-67.1323L30.0303-67.1323L30.0303-70.459L28.1226-70.459ZM11.6885-24.4799L46.9815-24.4799L46.2315-26.7285L12.4385-26.7285ZM55.1196 0L57.7637 0L30.6382-70.459L29.4326-70.459L29.4326-67.1323Z"/>
  </g>
  <line id="Baseline-M" style="fill:none;stroke:#27AAE1;opacity:1;stroke-width:0.5;" x1="263" x2="3036" y1="1126" y2="1126"/>
  <line id="Capline-M" style="fill:none;stroke:#27AAE1;opacity:1;stroke-width:0.5;" x1="263" x2="3036" y1="1055.54" y2="1055.54"/>
  <g id="H-reference" style="fill:#27AAE1;stroke:none;" transform="matrix(1 0 0 1 339 1556)">
   <path d="M0.993654 0L3.63775 0L29.3281-67.1323L30.0303-67.1323L30.0303-70.459L28.1226-70.459ZM11.6885-24.4799L46.9815-24.4799L46.2315-26.7285L12.4385-26.7285ZM55.1196 0L57.7637 0L30.6382-70.459L29.4326-70.459L29.4326-67.1323Z"/>
  </g>
  <line id="Baseline-L" style="fill:none;stroke:#27AAE1;opacity:1;stroke-width:0.5;" x1="263" x2="3036" y1="1556" y2="1556"/>
  <line id="Capline-L" style="fill:none;stroke:#27AAE1;opacity:1;stroke-width:0.5;" x1="263" x2="3036" y1="1485.54" y2="1485.54"/>
  <line id="right-margin-Black-S" style="fill:none;stroke:#00AEEF;stroke-width:0.5;opacity:1.0;" x1="2985.57" x2="2985.57" y1="600.785" y2="720.121"/>
  <line id="left-margin-Black-S" style="fill:none;stroke:#00AEEF;stroke-width:0.5;opacity:1.0;" x1="2881.23" x2="2881.23" y1="600.785" y2="720.121"/>
  <line id="right-margin-Regular-S" style="fill:none;stroke:#00AEEF;stroke-width:0.5;opacity:1.0;" x1="1501.87" x2="1501.87" y1="600.785" y2="720.121"/>
  <line id="left-margin-Regular-S" style="fill:none;stroke:#00AEEF;stroke-width:0.5;opacity:1.0;" x1="1397.82" x2="1397.82" y1="600.785" y2="720.121"/>
  <line id="right-margin-Ultralight-S" style="fill:none;stroke:#00AEEF;stroke-width:0.5;opacity:1.0;" x1="608.831" x2="608.831" y1="600.785" y2="720.121"/>
  <line id="left-margin-Ultralight-S" style="fill:none;stroke:#00AEEF;stroke-width:0.5;opacity:1.0;" x1="510.591" x2="510.591" y1="600.785" y2="720.121"/>
 </g>
 <g id="Symbols">
  <g id="Black-S" transform="matrix(1 0 0 1 2881.23 696)">
   <path class="monochrome-0 multicolor-0:systemBlueColor hierarchical-0:secondary SFSymbolsPreviewWireframe" d="M11.4746-39.209C12.7441-37.8906 14.7949-37.9395 16.0156-39.3066C25.7324-49.4629 38.1348-54.834 52.1973-54.834C66.3574-54.834 78.8086-49.4629 88.4766-39.209C89.6973-37.9883 91.6992-38.0371 92.9199-39.3066L98.6328-45.0684C99.7559-46.1914 99.8535-47.9004 98.8281-49.0234C88.6719-61.6211 70.3125-69.7266 52.1973-69.7266C34.082-69.7266 15.7227-61.6211 5.56641-49.0234C4.54102-47.9004 4.63867-46.1914 5.76172-45.0684Z"/>
   <path class="monochrome-1 multicolor-1:systemBlueColor hierarchical-1:secondary SFSymbolsPreviewWireframe" d="M28.0273-23.5352C29.3945-22.2656 31.3477-22.3145 32.666-23.7305C37.793-28.8574 45.1172-31.8848 52.1973-31.8848C59.375-31.8848 66.8457-28.7598 71.9727-23.5352C73.1934-22.2168 75-22.3145 76.3672-23.5352L82.7637-29.4434C83.8867-30.5176 84.0332-32.0312 83.0078-33.1543C76.2207-40.9668 64.3555-45.8008 52.1973-45.8008C40.0391-45.8008 28.1738-40.9668 21.3867-33.1543C20.3613-32.0312 20.5078-30.5176 21.6309-29.4434Z"/>
   <path class="monochrome-2 multicolor-2:systemBlueColor hierarchical-2:secondary SFSymbolsPreviewWireframe" d="M52.2461-0.683594C53.5645-0.683594 54.7363-1.31836 56.4941-2.97852L66.2109-12.4023C67.334-13.4766 67.5293-15.2832 66.4551-16.5039C63.0371-20.752 57.6172-23.291 52.2461-23.291C46.7773-23.291 41.0645-20.6055 37.5488-15.918C36.8164-14.8438 37.2559-13.3789 38.2324-12.4023L47.998-2.97852C49.7559-1.31836 50.9277-0.683594 52.2461-0.683594Z"/>
   <path class="monochrome-3 multicolor-3:tintColor hierarchical-3:primary SFSymbolsPreviewWireframe" d="M80.7129-1.85547C84.4238 1.80664 90.332 1.70898 93.8965-1.85547C97.6074-5.56641 97.5586-11.4258 93.8477-14.9902L27.9297-80.9082C24.2188-84.6191 18.2617-84.6191 14.6484-81.0059C11.0352-77.3926 11.0352-71.2891 14.6973-67.7734Z"/>
   <path class="monochrome-4 multicolor-4:systemBlueColor hierarchical-4:primary SFSymbolsPreviewWireframe" d="M84.8145-6.00586C86.2305-4.63867 88.4766-4.73633 89.7461-6.00586C91.1621-7.42188 91.1133-9.52148 89.7461-10.8398L23.7793-76.7578C22.3633-78.1738 20.1172-78.1738 18.7988-76.8555C17.4805-75.5371 17.4805-73.1934 18.7988-71.9238Z"/>
  </g>
  <g id="Regular-S" transform="matrix(1 0 0 1 1397.82 696)">
   <path class="monochrome-0 multicolor-0:systemBlueColor hierarchical-0:secondary SFSymbolsPreviewWireframe" d="M13.7207-39.9902C14.4531-39.209 15.625-39.209 16.4062-40.0391C25.8301-50.0488 38.1836-55.2734 52.002-55.2734C65.918-55.2734 78.3203-50 87.7441-39.9902C88.4277-39.2578 89.5508-39.3066 90.332-40.0879L95.8008-45.5078C96.4844-46.2402 96.4355-47.1191 95.8984-47.8027C86.9141-58.9355 69.9707-67.2363 52.002-67.2363C34.082-67.2363 17.1387-58.9355 8.10547-47.8027C7.56836-47.1191 7.56836-46.2402 8.25195-45.5078Z"/>
   <path class="monochrome-1 multicolor-1:systemBlueColor hierarchical-1:secondary SFSymbolsPreviewWireframe" d="M29.5898-24.0234C30.4199-23.1445 31.543-23.291 32.373-24.1699C36.8652-29.248 44.2871-32.959 52.002-32.9102C59.8145-32.959 67.1875-29.1016 71.8262-24.0234C72.5586-23.1934 73.584-23.2422 74.4629-24.0723L80.5664-30.0781C81.2012-30.7129 81.25-31.6406 80.7129-32.373C74.8535-39.4531 64.1602-44.9219 52.002-44.9219C39.8438-44.9219 29.1504-39.4531 23.3398-32.373C22.7539-31.6406 22.7539-30.8105 23.4863-30.0781Z"/>
   <path class="monochrome-2 multicolor-2:systemBlueColor hierarchical-2:secondary SFSymbolsPreviewWireframe" d="M52.002-3.17383C52.9297-3.17383 53.6621-3.56445 55.2246-5.07812L64.6484-14.1113C65.2344-14.6973 65.3809-15.6738 64.8438-16.3574C62.2559-19.6777 57.5195-22.5586 52.002-22.5586C46.2891-22.5586 41.5527-19.5312 39.0137-16.0645C38.623-15.4785 38.8184-14.6973 39.4531-14.1113L48.7793-5.07812C50.3418-3.61328 51.123-3.17383 52.002-3.17383Z"/>
   <path class="monochrome-3 multicolor-3:tintColor hierarchical-3:primary SFSymbolsPreviewWireframe" d="M80.4199-3.4668C83.6426-0.292969 88.8672-0.292969 92.041-3.56445C95.1172-6.73828 95.1172-11.8164 91.9922-14.9902L27.9785-79.0039C24.8047-82.1777 19.5801-82.1777 16.4062-79.0039C13.2812-75.8301 13.2812-70.5566 16.4551-67.4805Z"/>
   <path class="monochrome-4 multicolor-4:systemBlueColor hierarchical-4:primary SFSymbolsPreviewWireframe" d="M83.8379-6.88477C85.1562-5.56641 87.3047-5.56641 88.5742-6.88477C89.8438-8.20312 89.8926-10.3027 88.5742-11.6211L24.6094-75.5859C23.291-76.9043 21.1426-76.9043 19.8242-75.5859C18.5547-74.3164 18.5547-72.0703 19.8242-70.8496Z"/>
  </g>
  <g id="Ultralight-S" transform="matrix(1 0 0 1 510.591 696)">
   <path class="monochrome-0 multicolor-0:systemBlueColor hierarchical-0:secondary SFSymbolsPreviewWireframe" d="M11.1323-41.3525C11.7285-40.7529 12.4917-40.7529 13.0913-41.4014C22.3789-51.1387 35.0049-56.4995 49.0957-56.4995C63.1934-56.4995 76.0498-51.3169 85.1104-41.3979C85.7031-40.7563 86.4629-40.7598 87.0625-41.3594L91.5777-45.8257C92.125-46.3765 92.1216-47.0737 91.6299-47.6665C82.7818-58.436 65.8838-66.0103 49.0957-66.0103C32.3565-66.0103 15.3677-58.4814 6.60695-47.6665C6.11525-47.0737 6.16066-46.3765 6.66261-45.8257Z"/>
   <path class="monochrome-1 multicolor-1:systemBlueColor hierarchical-1:secondary SFSymbolsPreviewWireframe" d="M27.0923-25.3403C27.6499-24.7793 28.3643-24.7895 29.0127-25.4868C33.8228-30.6558 41.6079-34.185 49.0957-34.1362C56.5904-34.185 64.3721-30.6455 69.1924-25.4766C69.834-24.7827 70.5415-24.7861 71.148-25.3437L76.3433-30.4414C76.8418-30.9399 76.8907-31.5952 76.4444-32.146C70.9029-39.0444 60.1641-43.6958 49.0957-43.6958C38.0728-43.6958 27.3794-38.999 21.7959-32.146C21.3462-31.5952 21.3916-30.9468 21.897-30.4414Z"/>
   <path class="monochrome-2 multicolor-2:systemBlueColor hierarchical-2:secondary SFSymbolsPreviewWireframe" d="M49.0957-4.39989C49.6602-4.39989 50.211-4.74511 51.501-5.94091L60.4707-14.6108C60.9204-15.0151 61.0215-15.4922 60.5752-16.1304C58.4868-18.9058 53.8413-21.3325 49.0957-21.3325C44.3819-21.3325 39.6909-18.8955 37.606-16.1099C37.2153-15.4785 37.2744-15.0151 37.7276-14.6108L46.7359-5.94091C48.0259-4.74853 48.5347-4.39989 49.0957-4.39989Z"/>
   <path class="monochrome-3 multicolor-3:tintColor hierarchical-3:primary SFSymbolsPreviewWireframe" d="M81.1011-4.60204C82.689-2.92674 85.3252-2.92674 86.9097-4.56347C88.6236-6.23877 88.5782-8.81936 86.9063-10.4038L21.0308-76.2793C19.4917-77.8638 16.8555-77.9546 15.2256-76.2793C13.5991-74.6494 13.5991-72.0552 15.229-70.4321Z"/>
   <path class="monochrome-4 multicolor-4:systemBlueColor hierarchical-4:primary SFSymbolsPreviewWireframe" d="M83.2022-6.70313C83.6577-6.24755 84.3531-6.24755 84.8052-6.70313C85.3028-7.20411 85.2154-7.85061 84.8052-8.26077L18.9332-74.1328C18.523-74.543 17.8277-74.6338 17.3721-74.1328C16.9199-73.7261 16.9199-72.9785 17.3721-72.5752Z"/>
  </g>
 </g>
</svg>
